<svg viewBox="-1.165 -1.165 56 56" xmlns="http://www.w3.org/2000/svg" height="56" width="56" id="Multiple-Man--Streamline-Ultimate.svg"><desc>Multiple Man Streamline Icon: https://streamlinehq.com</desc><path d="M1.118125 45.843125a15.65375 15.65375 0 0 1 31.3075 0Z" fill="none" stroke="#85dcd6" stroke-linecap="round" stroke-linejoin="round" stroke-width="2.33"></path><path d="M31.294082500000002 14.6653275a15.70518375 15.70518375 0 0 0 8.772808750000001 2.66561 15.75885375 15.75885375 0 0 0 6.248082500000001 -1.28584375" fill="none" stroke="#85dcd6" stroke-linecap="round" stroke-linejoin="round" stroke-width="2.33"></path><path d="M29.652675000000002 11.18125a9.501826249999999 9.501826249999999 0 1 1 1.654825 13.84015125 9.79701125 9.79701125 0 0 1 -1.118125 -0.95935125" fill="none" stroke="#85dcd6" stroke-linecap="round" stroke-linejoin="round" stroke-width="2.33"></path><path d="M32.425625000000004 30.8378875a15.66493125 15.66493125 0 0 1 20.12625 15.0052375H38.01625" fill="none" stroke="#85dcd6" stroke-linecap="round" stroke-linejoin="round" stroke-width="2.33"></path><path d="M8.5827275 12.50511a15.792397500000002 15.792397500000002 0 0 0 17.60599625 3.53998375" fill="none" stroke="#85dcd6" stroke-linecap="round" stroke-linejoin="round" stroke-width="2.33"></path><path d="M7.2678125 17.3309375a9.5040625 9.5040625 0 1 0 19.008125 0 9.5040625 9.5040625 0 1 0 -19.008125 0Z" fill="none" stroke="#85dcd6" stroke-linecap="round" stroke-linejoin="round" stroke-width="2.33"></path></svg>