<svg xmlns="http://www.w3.org/2000/svg" viewBox="-1.165 -1.165 56 56" height="56" width="56" id="Technology-Cat-Eye-Door-View--Streamline-Ultimate.svg"><desc>Technology Cat Eye Door View Streamline Icon: https://streamlinehq.com</desc><defs></defs><path d="M52.234327500000006 41.5718875s-5.0315625 10.063125 -15.094687500000001 10.063125 -15.094687500000001 -10.063125 -15.094687500000001 -10.063125 5.0315625 -10.063125 15.094687500000001 -10.063125 15.094687500000001 10.063125 15.094687500000001 10.063125Z" fill="none" stroke="#85dcd6" stroke-linecap="round" stroke-linejoin="round" stroke-width="2.33"></path><path d="M32.1080775 41.5718875a5.0315625 5.0315625 0 1 0 10.063125 0 5.0315625 5.0315625 0 1 0 -10.063125 0" fill="none" stroke="#85dcd6" stroke-linecap="round" stroke-linejoin="round" stroke-width="2.33"></path><path d="M1.4356725000000001 3.1441675 16.55943125 11.539050000000001a1.67942375 1.67942375 0 0 1 1.08905375 1.565375v36.63872a1.6771875 1.6771875 0 0 1 -2.28768375 1.565375L2.0484050000000003 43.33628875a1.118125 1.118125 0 0 1 -0.6127325 -0.99065875V3.1441675a1.118125 1.118125 0 0 1 1.118125 -1.118125h24.598750000000003a3.354375 3.354375 0 0 1 3.354375 3.354375v19.5671875" fill="none" stroke="#85dcd6" stroke-linecap="round" stroke-linejoin="round" stroke-width="2.33"></path><path d="m12.639285000000001 26.47496375 0 4.4725" fill="none" stroke="#85dcd6" stroke-linecap="round" stroke-linejoin="round" stroke-width="2.33"></path></svg>