<svg xmlns="http://www.w3.org/2000/svg" fill="none" viewBox="-1.165 -1.165 56 56" height="56" width="56" id="Workflow-Manager-Male-Crown--Streamline-Ultimate.svg"><desc>Workflow Manager Male Crown Streamline Icon: https://streamlinehq.com</desc><path stroke="#ffffff" stroke-linecap="round" stroke-linejoin="round" d="M29.914316250000002 44.41147775c-0.9305036250000001 0.697933625 -2.062046125 1.0749653750000001 -3.224896125 1.0749653750000001 -1.163073625 0 -2.294616125 -0.37703175 -3.224896125 -1.0749653750000001" stroke-width="2.33"></path><path stroke="#ffffff" stroke-linecap="round" stroke-linejoin="round" d="M22.398056375000003 39.59347712500001c-0.302475175 0 -0.5476129 -0.245093 -0.5476129 -0.547657625 0 -0.30234099999999997 0.245137725 -0.547434 0.5476129 -0.547434" stroke-width="2.33"></path><path stroke="#ffffff" stroke-linecap="round" stroke-linejoin="round" d="M22.398056375000003 39.59347712500001c0.30234099999999997 0 0.547434 -0.245093 0.547434 -0.547657625 0 -0.30234099999999997 -0.245093 -0.547434 -0.547434 -0.547434" stroke-width="2.33"></path><path stroke="#ffffff" stroke-linecap="round" stroke-linejoin="round" d="M31.006948 39.59347712500001c-0.30234099999999997 0 -0.547434 -0.245093 -0.547434 -0.547657625 0 -0.30234099999999997 0.245093 -0.547434 0.547434 -0.547434" stroke-width="2.33"></path><path stroke="#ffffff" stroke-linecap="round" stroke-linejoin="round" d="M31.006948 39.59347712500001c0.30256462500000003 0 0.547657625 -0.245093 0.547657625 -0.547657625 0 -0.30234099999999997 -0.245093 -0.547434 -0.547657625 -0.547434" stroke-width="2.33"></path><path stroke="#ffffff" stroke-linecap="round" stroke-linejoin="round" d="M13.964061862500001 32.602736c-0.1172913125 0.705089625 -0.1758810625 1.418453375 -0.17518782500000002 2.133158875v4.298967c-0.022273050000000003 1.708271375 0.2949837375 3.4040197500000002 0.9332989375 4.9886265 0.6383152000000001 1.5848303750000001 1.585009275 3.026988 2.7851599250000003 4.242837125 1.2001282875 1.2158491249999999 2.629785275 2.1812382500000003 4.2060060875000005 2.8400375 1.5763102625 0.659022875 3.2675861375 0.9982620000000001 4.9760811375000005 0.9982620000000001 1.708271375 0 3.399770875 -0.33923912500000003 4.9758798749999995 -0.9982620000000001 1.576332625 -0.65879925 3.0059672500000003 -1.624188375 4.206162625 -2.8400375 1.19997175 -1.2158491249999999 2.1468 -2.65800675 2.7850257500000004 -4.242837125 0.638449375 -1.58460675 0.9555496250000001 -3.2803551250000003 0.9334107500000001 -4.9886265v-4.298967c0.0006708749999999999 -0.7147055 -0.057918875 -1.4280692499999998 -0.175322 -2.133158875" stroke-width="2.33"></path><path stroke="#ffffff" stroke-linecap="round" stroke-linejoin="round" d="M39.589899125 34.735894875h-4.2991906250000005c-2.8469698749999997 0 -8.725176625 0.722756 -12.901597125 -4.30120325 -1.0626883625 1.26527025 -2.3758143625000003 2.296852375 -3.8566814750000002 3.029895125 -1.4808447500000002 0.73304275 -3.0974075125 1.15166875 -4.7479389125 1.229713875" stroke-width="2.33"></path><path stroke="#ffffff" stroke-linecap="round" stroke-linejoin="round" d="M14.494075475 27.4781455 9.4416264 14.9947494875l11.068520637499999 4.7480283624999995L26.835 10.262061800000001l6.324785875 9.48071605 11.068543 -4.7436453125 -5.050123375000001 12.4832618375c-3.864910875 -1.802193875 -8.077335 -2.7362755 -12.341640125000001 -2.73717 -4.264305125 -0.0006708749999999999 -8.4770646875 0.932069 -12.3424899 2.732921125Z" stroke-width="2.33"></path><path stroke="#ffffff" stroke-linecap="round" stroke-linejoin="round" d="M26.835 9.471480337500001c2.183250875 0 3.9530191250000004 -1.7698353375 3.9530191250000004 -3.9530414874999997 0 -2.18320615 -1.76976825 -3.953037015 -3.9530191250000004 -3.953037015 -2.183250875 0 -3.9530191250000004 1.769830865 -3.9530191250000004 3.953037015S24.651749125000002 9.471480337500001 26.835 9.471480337500001Z" stroke-width="2.33"></path><path stroke="#ffffff" stroke-linecap="round" stroke-linejoin="round" d="M45.80958125 15.0057518375c2.183250875 0 3.9530191250000004 -1.7698577000000002 3.9530191250000004 -3.95306385 0 -2.1831837875 -1.76976825 -3.9530414874999997 -3.9530191250000004 -3.9530414874999997 -2.183250875 0 -3.9530191250000004 1.7698577000000002 -3.9530191250000004 3.9530414874999997 0 2.18320615 1.76976825 3.95306385 3.9530191250000004 3.95306385Z" stroke-width="2.33"></path><path stroke="#ffffff" stroke-linecap="round" stroke-linejoin="round" d="M7.860396387500001 15.0057518375c2.18320615 0 3.9530414874999997 -1.7698577000000002 3.9530414874999997 -3.95306385 0 -2.1831837875 -1.7698353375 -3.9530414874999997 -3.9530414874999997 -3.9530414874999997 -2.18320615 0 -3.9530414874999997 1.7698577000000002 -3.9530414874999997 3.9530414874999997 0 2.18320615 1.7698353375 3.95306385 3.9530414874999997 3.95306385Z" stroke-width="2.33"></path></svg>