<svg viewBox="-1.165 -1.165 56 56" xmlns="http://www.w3.org/2000/svg" height="56" width="56" id="Earth-3--Streamline-Ultimate.svg"><desc>Earth 3 Streamline Icon: https://streamlinehq.com</desc><path d="M52.551875 26.70306125a25.801852500000003 25.801852500000003 0 0 1 -25.788435 25.81527A26.0791475 26.0791475 0 0 1 1.118125 26.240157500000002 25.1488675 25.1488675 0 0 1 25.72805625 1.118125c0.37121750000000003 -0.01565375 0.7424350000000001 -0.0223625 1.118125 -0.0223625A25.56704625 25.56704625 0 0 1 52.551875 26.70306125Z" fill="none" stroke="#85dcd6" stroke-linecap="round" stroke-linejoin="round" stroke-width="2.33"></path><path d="M25.72805625 1.118125c-13.4175 14.535625 -13.4175 33.499025 0 51.389025000000004" fill="none" stroke="#85dcd6" stroke-linecap="round" stroke-linejoin="round" stroke-width="2.33"></path><path d="M27.964306250000003 1.118125c13.4175 14.535625 13.4175 33.49231625 0 51.38231625" fill="none" stroke="#85dcd6" stroke-linecap="round" stroke-linejoin="round" stroke-width="2.33"></path><path d="m5.3356925 12.263595 42.788407500000005 0" fill="none" stroke="#85dcd6" stroke-linecap="round" stroke-linejoin="round" stroke-width="2.33"></path><path d="m1.12483375 25.681095 51.42704125 0" fill="none" stroke="#85dcd6" stroke-linecap="round" stroke-linejoin="round" stroke-width="2.33"></path><path d="m4.43895625 39.098595 44.94862500000001 0" fill="none" stroke="#85dcd6" stroke-linecap="round" stroke-linejoin="round" stroke-width="2.33"></path></svg>