<svg xmlns="http://www.w3.org/2000/svg" fill="none" viewBox="-1.165 -1.165 56 56" height="56" width="56" id="Couple-Film--Streamline-Ultimate.svg"><desc>Couple Film Streamline Icon: https://streamlinehq.com</desc><path stroke="#ffffff" stroke-linecap="round" stroke-linejoin="round" d="M26.835 22.0896998625c-1.9723725 -6.05800125 -8.945 -4.248875 -8.945 1.2008438875 0 3.9492175 5.9707875 9.000906250000002 8.25399875 10.789906250000001 0.197013625 0.15497212500000002 0.440317625 0.239055125 0.69100125 0.239055125s0.49398762500000004 -0.084083 0.69100125 -0.239055125C29.8092125 32.29145 35.78 27.239761249999997 35.78 23.290543749999998c0 -5.4385376375 -6.9726275 -7.2588451375 -8.945 -1.2008438875Z" stroke-width="2.33"></path><path stroke="#ffffff" stroke-linecap="round" stroke-linejoin="round" d="M48.079375 4.4725h-42.48875c-2.4700946625 0 -4.4725 2.0024053375 -4.4725 4.4725v35.78c0 2.47016175 2.0024053375 4.4725 4.4725 4.4725h42.48875c2.47016175 0 4.4725 -2.00233825 4.4725 -4.4725V8.945c0 -2.4700946625 -2.00233825 -4.4725 -4.4725 -4.4725Z" stroke-width="2.33"></path><path stroke="#ffffff" stroke-linecap="round" stroke-linejoin="round" d="M1.118125 13.4175h51.43375" stroke-width="2.33"></path><path stroke="#ffffff" stroke-linecap="round" stroke-linejoin="round" d="M1.118125 40.2525h51.43375" stroke-width="2.33"></path><path stroke="#ffffff" d="M8.3859375 9.5040625c-0.3087590375 0 -0.5590625 -0.2503034625 -0.5590625 -0.5590625s0.2503034625 -0.5590625 0.5590625 -0.5590625" stroke-width="2.33"></path><path stroke="#ffffff" d="M8.3859375 9.5040625c0.3087590375 0 0.5590625 -0.2503034625 0.5590625 -0.5590625s-0.2503034625 -0.5590625 -0.5590625 -0.5590625" stroke-width="2.33"></path><path stroke="#ffffff" d="M8.3859375 45.284062500000005c-0.3087590375 0 -0.5590625 -0.250236375 -0.5590625 -0.5590625s0.2503034625 -0.5590625 0.5590625 -0.5590625" stroke-width="2.33"></path><path stroke="#ffffff" d="M8.3859375 45.284062500000005c0.3087590375 0 0.5590625 -0.250236375 0.5590625 -0.5590625s-0.2503034625 -0.5590625 -0.5590625 -0.5590625" stroke-width="2.33"></path><path stroke="#ffffff" d="M17.61046875 9.5040625c-0.3087590375 0 -0.5590625 -0.2503034625 -0.5590625 -0.5590625s0.2503034625 -0.5590625 0.5590625 -0.5590625" stroke-width="2.33"></path><path stroke="#ffffff" d="M17.61046875 9.5040625c0.3087590375 0 0.5590625 -0.2503034625 0.5590625 -0.5590625s-0.2503034625 -0.5590625 -0.5590625 -0.5590625" stroke-width="2.33"></path><path stroke="#ffffff" d="M17.61046875 45.284062500000005c-0.3087590375 0 -0.5590625 -0.250236375 -0.5590625 -0.5590625s0.2503034625 -0.5590625 0.5590625 -0.5590625" stroke-width="2.33"></path><path stroke="#ffffff" d="M17.61046875 45.284062500000005c0.3087590375 0 0.5590625 -0.250236375 0.5590625 -0.5590625s-0.2503034625 -0.5590625 -0.5590625 -0.5590625" stroke-width="2.33"></path><path stroke="#ffffff" d="M26.835 9.5040625c-0.308826125 0 -0.5590625 -0.2503034625 -0.5590625 -0.5590625s0.250236375 -0.5590625 0.5590625 -0.5590625" stroke-width="2.33"></path><path stroke="#ffffff" d="M26.835 9.5040625c0.308826125 0 0.5590625 -0.2503034625 0.5590625 -0.5590625s-0.250236375 -0.5590625 -0.5590625 -0.5590625" stroke-width="2.33"></path><g><path stroke="#ffffff" d="M26.835 45.284062500000005c-0.308826125 0 -0.5590625 -0.250236375 -0.5590625 -0.5590625s0.250236375 -0.5590625 0.5590625 -0.5590625" stroke-width="2.33"></path><path stroke="#ffffff" d="M26.835 45.284062500000005c0.308826125 0 0.5590625 -0.250236375 0.5590625 -0.5590625s-0.250236375 -0.5590625 -0.5590625 -0.5590625" stroke-width="2.33"></path></g><g><path stroke="#ffffff" d="M36.05953125 9.5040625c-0.308826125 0 -0.5590625 -0.2503034625 -0.5590625 -0.5590625s0.250236375 -0.5590625 0.5590625 -0.5590625" stroke-width="2.33"></path><path stroke="#ffffff" d="M36.05953125 9.5040625c0.308826125 0 0.5590625 -0.2503034625 0.5590625 -0.5590625s-0.250236375 -0.5590625 -0.5590625 -0.5590625" stroke-width="2.33"></path></g><g><path stroke="#ffffff" d="M36.05953125 45.284062500000005c-0.308826125 0 -0.5590625 -0.250236375 -0.5590625 -0.5590625s0.250236375 -0.5590625 0.5590625 -0.5590625" stroke-width="2.33"></path><path stroke="#ffffff" d="M36.05953125 45.284062500000005c0.308826125 0 0.5590625 -0.250236375 0.5590625 -0.5590625s-0.250236375 -0.5590625 -0.5590625 -0.5590625" stroke-width="2.33"></path></g><g><path stroke="#ffffff" d="M45.284062500000005 9.5040625c-0.308826125 0 -0.5590625 -0.2503034625 -0.5590625 -0.5590625s0.250236375 -0.5590625 0.5590625 -0.5590625" stroke-width="2.33"></path><path stroke="#ffffff" d="M45.284062500000005 9.5040625c0.308826125 0 0.5590625 -0.2503034625 0.5590625 -0.5590625s-0.250236375 -0.5590625 -0.5590625 -0.5590625" stroke-width="2.33"></path></g><g><path stroke="#ffffff" d="M45.284062500000005 45.284062500000005c-0.308826125 0 -0.5590625 -0.250236375 -0.5590625 -0.5590625s0.250236375 -0.5590625 0.5590625 -0.5590625" stroke-width="2.33"></path><path stroke="#ffffff" d="M45.284062500000005 45.284062500000005c0.308826125 0 0.5590625 -0.250236375 0.5590625 -0.5590625s-0.250236375 -0.5590625 -0.5590625 -0.5590625" stroke-width="2.33"></path></g></svg>