<svg viewBox="-1.165 -1.165 56 56" xmlns="http://www.w3.org/2000/svg" height="56" width="56" id="Show-Theater-Masks--Streamline-Ultimate.svg"><desc>Show Theater Masks Streamline Icon: https://streamlinehq.com</desc><path d="M52.551875 30.189375000000002V15.09916a2.2228325 2.2228325 0 0 0 -3.07037125 -2.06405875c-7.683755000000001 3.11286 -24.1917525 3.11509625 -31.8755075 0a2.23625 2.23625 0 0 0 -3.07037125 2.066295V30.189375000000002c0 12.299375000000001 14.535625 22.3625 19.008125 22.3625s19.008125 -10.063125 19.008125 -22.3625Z" fill="none" stroke="#ffffff" stroke-linecap="round" stroke-linejoin="round" stroke-width="2.33"></path><path d="M39.134375 10.67362125V3.354375a2.2228325 2.2228325 0 0 0 -3.07037125 -2.0685312500000004c-7.683755000000001 3.11286 -24.1917525 3.11509625 -31.8755075 0A2.23625 2.23625 0 0 0 1.118125 3.354375v15.085742500000002c0 7.08667625 4.8303 13.43539 9.779121250000001 17.541145" fill="none" stroke="#ffffff" stroke-linecap="round" stroke-linejoin="round" stroke-width="2.33"></path><path d="M40.2525 36.898125a6.70875 6.70875 0 0 1 -13.4175 0" fill="none" stroke="#ffffff" stroke-linecap="round" stroke-linejoin="round" stroke-width="2.33"></path><path d="M38.01625 26.835a3.354375 3.354375 0 1 1 6.70875 0" fill="none" stroke="#ffffff" stroke-linecap="round" stroke-linejoin="round" stroke-width="2.33"></path><path d="M22.3625 26.835a3.354375 3.354375 0 1 1 6.70875 0" fill="none" stroke="#ffffff" stroke-linecap="round" stroke-linejoin="round" stroke-width="2.33"></path></svg>