<svg xmlns="http://www.w3.org/2000/svg" fill="none" viewBox="-1.165 -1.165 56 56" height="56" width="56" id="Couple-Tv--Streamline-Ultimate.svg"><desc>Couple Tv Streamline Icon: https://streamlinehq.com</desc><path stroke="#85dcd6" stroke-linecap="round" stroke-linejoin="round" d="M20.5511375 41.3035375c0.9859626250000001 -1.6805418749999999 2.39412925 -3.0743965 4.08473425 -4.0433636250000005 1.6906050000000001 -0.9687435 3.6050586250000003 -1.4790557500000001 5.55350325 -1.4801738750000002 1.7398025000000001 -0.005590625 3.456348 0.40051237500000003 5.009200000000001 1.1852125" stroke-width="2.33"></path><path stroke="#85dcd6" stroke-linecap="round" stroke-linejoin="round" d="M38.329325000000004 32.7387c-0.89047475 -1.466309125 -1.3334758750000002 -3.160492125 -1.2746625 -4.875025000000001v-1.9902625c0 -1.82075475 -0.723426875 -3.5669976500000002 -2.010836 -4.854496225C33.756417375000005 19.7314400625 32.01012975 19.008125 30.189375000000002 19.008125c-1.82075475 0 -3.567042375 0.7233150625000001 -4.8544515 2.010791275 -1.28763275 1.287498575 -2.010836 3.033741475 -2.010836 4.854496225v1.9902625c0.058813375 1.7145328750000002 -0.38418775000000005 3.408715875 -1.2746848625 4.875025000000001" stroke-width="2.33"></path><path stroke="#85dcd6" stroke-linecap="round" stroke-linejoin="round" d="M23.3240875 27.0139c1.303510125 -0.002012625 2.591590125 -0.284451 3.7761317500000002 -0.828530625 1.18476525 -0.544079625 2.238262625 -1.337053875 3.08915575 -2.3245818750000002 0.850893125 0.987528 1.9043905 1.78050225 3.08915575 2.3245818750000002 1.1845416249999998 0.544079625 2.472398 0.826518 3.7761317500000002 0.828530625" stroke-width="2.33"></path><path stroke="#85dcd6" stroke-linecap="round" stroke-linejoin="round" d="M36.22725 26.969175000000003c0 1.601378625 -0.6362131249999999 3.1370115000000003 -1.7684265 4.2694485 -1.132437 1.132213375 -2.668069875 1.7684265 -4.2694485 1.7684265s-3.137235125 -0.6362131249999999 -4.2694485 -1.7684265c-1.132213375 -1.132437 -1.7684265 -2.668069875 -1.7684265 -4.2694485" stroke-width="2.33"></path><path stroke="#85dcd6" stroke-linecap="round" stroke-linejoin="round" d="M22.0717875 39.26855c-0.971650625 -1.7380135 -2.3897462000000003 -3.18486725 -4.1077452625 -4.191403375 -1.7179990625000001 -1.0063125000000002 -3.673577325 -1.5358565 -5.664667237500001 -1.533396625 -2.216615725 -0.00849775 -4.3838774125 0.654103125 -6.216775 1.9008125" stroke-width="2.33"></path><path stroke="#85dcd6" stroke-linecap="round" stroke-linejoin="round" d="M6.507487500000001 20.12625c1.0460953875 1.0672503125000001 2.295510625 1.91396165 3.6744271 2.4900643749999998 1.3788941125 0.576281625 2.8592916125000003 0.870124875 4.3537104 0.864310625 1.5380256625 0.005143375 3.0605988375 -0.30681349999999996 4.4725 -0.9168625" stroke-width="2.33"></path><path stroke="#85dcd6" stroke-linecap="round" stroke-linejoin="round" d="M12.299375000000001 30.189375000000002c3.7051308124999998 0 6.70875 -3.003507375 6.70875 -6.70875 0 -3.7051308124999998 -3.0036191875000005 -6.70875 -6.70875 -6.70875s-6.70875 3.0036191875000005 -6.70875 6.70875c0 3.7052426250000003 3.0036191875000005 6.70875 6.70875 6.70875Z" stroke-width="2.33"></path><path stroke="#85dcd6" stroke-linecap="round" stroke-linejoin="round" d="M42.48875 10.063125V46.96125" stroke-width="2.33"></path><path stroke="#85dcd6" stroke-linecap="round" stroke-linejoin="round" d="m10.063125 46.96125 -4.4725 5.590625" stroke-width="2.33"></path><path stroke="#85dcd6" stroke-linecap="round" stroke-linejoin="round" d="m43.606875 46.96125 4.4725 5.590625" stroke-width="2.33"></path><path stroke="#85dcd6" stroke-linecap="round" stroke-linejoin="round" d="M50.315625000000004 10.063125h-46.96125c-1.23504733125 0 -2.23625 1.00121385 -2.23625 2.23625V44.725c0 1.235080875 1.00120266875 2.23625 2.23625 2.23625h46.96125c1.235080875 0 2.23625 -1.001169125 2.23625 -2.23625V12.299375000000001c0 -1.23503615 -1.001169125 -2.23625 -2.23625 -2.23625Z" stroke-width="2.33"></path><path stroke="#85dcd6" stroke-linecap="round" stroke-linejoin="round" d="m26.835 10.063125 -8.945 -8.945" stroke-width="2.33"></path><path stroke="#85dcd6" stroke-linecap="round" stroke-linejoin="round" d="m29.07125 10.063125 8.945 -8.945" stroke-width="2.33"></path><g><path stroke="#85dcd6" d="M47.5203125 21.244375c-0.308826125 0 -0.5590625 -0.2503034625 -0.5590625 -0.5590625s0.250236375 -0.5590625 0.5590625 -0.5590625" stroke-width="2.33"></path><path stroke="#85dcd6" d="M47.5203125 21.244375c0.308826125 0 0.5590625 -0.2503034625 0.5590625 -0.5590625S47.829138625000006 20.12625 47.5203125 20.12625" stroke-width="2.33"></path></g><g><path stroke="#85dcd6" d="M47.5203125 27.953125c-0.308826125 0 -0.5590625 -0.250236375 -0.5590625 -0.5590625s0.250236375 -0.5590625 0.5590625 -0.5590625" stroke-width="2.33"></path><path stroke="#85dcd6" d="M47.5203125 27.953125c0.308826125 0 0.5590625 -0.250236375 0.5590625 -0.5590625s-0.250236375 -0.5590625 -0.5590625 -0.5590625" stroke-width="2.33"></path></g><g><path stroke="#85dcd6" d="M47.5203125 34.661875c-0.308826125 0 -0.5590625 -0.250236375 -0.5590625 -0.5590625s0.250236375 -0.5590625 0.5590625 -0.5590625" stroke-width="2.33"></path><path stroke="#85dcd6" d="M47.5203125 34.661875c0.308826125 0 0.5590625 -0.250236375 0.5590625 -0.5590625s-0.250236375 -0.5590625 -0.5590625 -0.5590625" stroke-width="2.33"></path></g></svg>