<svg viewBox="-1.165 -1.165 56 56" xmlns="http://www.w3.org/2000/svg" height="56" width="56" id="Ranking-Winner-Ribbon--Streamline-Ultimate.svg"><desc>Ranking Winner Ribbon Streamline Icon: https://streamlinehq.com</desc><path d="M9.275965 31.3835325 1.2523000000000002 45.12976125c-0.30860250000000006 0.5322275 -0.062615 0.88331875 0.54340875 0.7804512499999999l7.5093275 -1.2724262499999999 2.602995 7.156000000000001c0.21020750000000002 0.5769525 0.6395675 0.61944125 0.95487875 0.08945l6.85410625 -11.512215" fill="none" stroke="#85dcd6" stroke-linecap="round" stroke-linejoin="round" stroke-width="2.33"></path><path d="m44.394035 31.3835325 8.023665000000001 13.74622875c0.30860250000000006 0.5322275 0.062615 0.88331875 -0.54340875 0.7804512499999999l-7.5093275 -1.2724262499999999 -2.602995 7.156000000000001c-0.21020750000000002 0.5769525 -0.6395675 0.61944125 -0.95487875 0.08945l-6.85410625 -11.512215" fill="none" stroke="#85dcd6" stroke-linecap="round" stroke-linejoin="round" stroke-width="2.33"></path><path d="M6.70875 21.53956a20.12625 20.12625 0 1 0 40.2525 0 20.12625 20.12625 0 1 0 -40.2525 0Z" fill="none" stroke="#85dcd6" stroke-linecap="round" stroke-linejoin="round" stroke-width="2.33"></path><path d="m27.953125 28.24831 0 -13.4175 -4.4725 1.5340675000000001" fill="none" stroke="#85dcd6" stroke-linecap="round" stroke-linejoin="round" stroke-width="2.33"></path></svg>