<svg xmlns="http://www.w3.org/2000/svg" viewBox="0 0 400 400" height="400" width="400" id="Being-Vip-1--Streamline-Barcelona.svg"><desc>BEING VIP 1 Streamline Illustration: https://streamlinehq.com</desc><defs></defs><path d="M342.762 124.126a4.88 4.88 0 0 0 -2.8 0.302v-0.068c-2.944 -15.82 -20.348 -21.4 -31.322 -9.94a23.086 23.086 0 0 0 -6.296 15.102c-0.522 13.09 9.318 22.302 20.122 21.066a20.756 20.756 0 0 0 16.894 -15.226 4.846 4.846 0 0 0 5 -0.54c4.04 -2.926 3.078 -9.786 -1.598 -10.696z" fill="#ff9f48" stroke-width="1"></path><path d="M264.152 52.91C222.856 -10.95 104.78 7.4 92.186 80.184a8.012 8.012 0 0 0 -3.232 4.482 5.036 5.036 0 0 0 2.424 5.634c3.19 1.444 7.786 -1.906 9.65 -4.92a5.584 5.584 0 0 0 6.372 4.94c2.6 26 18.15 184.928 19.28 199.612 0.082 1.046 1.73 1.056 1.646 0 -1.934 -24.94 -19.21 -199.618 -19.384 -199.964a8.73 8.73 0 0 0 4.566 -4.2 6.386 6.386 0 0 0 3.8 5.478c2.576 25.72 18.12 184.07 19.248 198.69 0.082 1.046 1.728 1.056 1.646 0 -2 -25.948 -17.78 -183.936 -19.2 -198.214 4.532 0.666 7.902 -2.264 9.568 -6.658 0.744 2.588 2.288 4.826 5.4 4.67 3.822 -0.2 6.772 -3.51 8.368 -6.98 3.284 10.44 12.964 10.658 16.276 3.6 2.744 7.952 11.126 6.782 13.856 0.144 0.04 -0.092 0.062 -0.186 0.102 -0.278a8.868 8.868 0 0 0 15.708 -1.502c3.75 8.248 13.972 4.976 13.75 -2.288a14.724 14.724 0 0 0 1.254 2.836 8.86 8.86 0 0 0 15.872 -1.77c4.166 11.8 15.454 10.428 17.6 1.832a7.688 7.688 0 0 0 8.444 5.292c-0.216 0.622 -18.26 185.2 -19.352 199.352 -0.084 1.056 1.562 1.046 1.646 0 2.858 -36.908 19.642 -199.232 19.094 -199.746a8.8 8.8 0 0 0 5.426 -6.678 16.2 16.2 0 0 0 3.902 5.944 0.874 0.874 0 0 0 -0.9 0.786c-2.6 26.022 -18.162 185.012 -19.29 199.694 -0.084 1.056 1.564 1.046 1.646 0 2.62 -33.8 19.444 -199.578 19.248 -200.066 2.952 1.43 7.148 -0.858 7.446 -6.026 1.956 3.572 4.8 6.626 9.32 5.902 4.132 -0.668 6.222 -4.37 3.684 -8.8a124.632 124.632 0 0 0 -12.918 -28.072zM92.424 88.932c-1.73 -0.4 -2.246 -2.67 -1.8 -4.162a6.178 6.178 0 0 1 1.966 -2.816h8.162c-1.388 4.754 -5.996 7.522 -8.328 6.978zm15.044 -0.28a3.86 3.86 0 0 1 -4.306 -2 8.646 8.646 0 0 1 -0.612 -4.7h10.872c-1.022 3.014 -2.59 6.048 -5.954 6.7zm12.83 1.492a4.772 4.772 0 0 1 -4.8 -3 9.84 9.84 0 0 1 -0.176 -5.2h12.434c-0.728 3.924 -3.028 8.094 -7.458 8.2zm13.968 -2.112c-3.468 0.474 -4.37 -3.262 -4.618 -6.078h11.234c-1.282 2.846 -3.572 5.662 -6.616 6.078zm15.718 1.284c-3.324 -0.904 -5.228 -4.142 -6.172 -7.362h13.824a6.466 6.466 0 0 1 -7.652 7.362zm11.472 -1.016a13.784 13.784 0 0 1 -2.174 -6.346h11.968a7.08 7.08 0 0 0 0.24 1.916c-1.324 6.742 -7.394 7.862 -10.034 4.43zm23.8 -1.852a7.326 7.326 0 0 1 -12.052 -2.6c0.172 -1 0.216 -1.684 0.238 -1.884h13.878a8.016 8.016 0 0 1 -2.07 4.484zm3.812 -4.494h11.294c0.694 6.512 -9.25 9.192 -11.3 0zm21.122 5.746a7.73 7.73 0 0 1 -5.8 -3.842 14.748 14.748 0 0 1 -0.8 -1.914h14.278a7.164 7.164 0 0 1 -7.684 5.756zm10.168 -5.746h15.086c0.506 9.542 -11.212 12.816 -15.092 0zm23.868 7.124c-2.94 0.112 -6.218 -2.496 -6.566 -7.124h12.94a7.172 7.172 0 0 1 -6.38 7.124zm17.652 -2.91c-0.734 1.6 -2.702 3.096 -4.492 2.246 -1.918 -0.908 -3.4 -4.37 -4.236 -6.46h9.298a8.674 8.674 0 0 1 -0.576 4.214zm6.224 0.456a13.93 13.93 0 0 1 -3.2 -4.67h10.862c2.97 5.806 -3.858 8.026 -7.668 4.67zM87.05 53.6a25.244 25.244 0 0 0 -6.896 -3.47c-1.014 -0.33 -1.44 1.264 -0.434 1.584a23.884 23.884 0 0 1 6.512 3.304 0.83 0.83 0 0 0 1.128 -0.3 0.85 0.85 0 0 0 -0.31 -1.118zm3.334 -8.922a136.08 136.08 0 0 0 -13.358 -8.542c-0.92 -0.518 -1.76 0.9 -0.828 1.418a131.572 131.572 0 0 1 13.358 8.542c0.844 0.622 1.676 -0.806 0.828 -1.418zm-0.736 -13.306q3.378 1.948 6.73 3.904a0.822 0.822 0 0 0 0.83 -1.418c-2.248 -1.306 -4.494 -2.6 -6.732 -3.904a0.822 0.822 0 0 0 -0.828 1.418zm174.152 6.814c2.174 -1.766 4.296 -3.584 6.448 -5.364a0.82 0.82 0 0 0 -1.158 -1.16c-2.154 1.8 -4.296 3.582 -6.45 5.364a0.828 0.828 0 0 0 0 1.16 0.846 0.846 0 0 0 1.16 0zm23.462 -7.386a0.834 0.834 0 0 0 -1.13 -0.3q-8.074 6.228 -16.152 12.446a0.86 0.86 0 0 0 -0.3 1.128 0.832 0.832 0 0 0 1.128 0.302q8.08 -6.232 16.154 -12.446a0.86 0.86 0 0 0 0.3 -1.13zm-6.576 14.468c-1.68 1.118 -3.374 2.216 -5.062 3.334a0.826 0.826 0 0 0 0.828 1.428q2.532 -1.662 5.062 -3.334a0.826 0.826 0 1 0 -0.828 -1.428zM124.564 17.746A0.826 0.826 0 1 0 126 16.918a28.82 28.82 0 0 0 -4.8 -6.668c-0.736 -0.766 -1.894 0.4 -1.16 1.16a27.344 27.344 0 0 1 4.524 6.336z" fill="#b26ee6" stroke-width="1"></path><path d="M238 19.382q1.744 -3.042 3.478 -6.098a0.822 0.822 0 0 0 -1.418 -0.83q-1.738 3.044 -3.478 6.1a0.822 0.822 0 0 0 1.418 0.828z" fill="#b26ee6" stroke-width="1"></path><path d="M348.094 110.346a6.5 6.5 0 0 0 -6.494 -0.946 10.4 10.4 0 0 0 2.454 -3.416 3.616 3.616 0 0 0 -0.694 -3.924c-2.2 -1.972 -7.418 0.266 -9.878 1.864a15.8 15.8 0 0 1 1.988 -2.578c1.762 -2.286 0.736 -4.292 -1.48 -4.536a6.878 6.878 0 0 0 -2.776 0.424 42.56 42.56 0 0 0 -20.49 13.966 17.16 17.16 0 0 0 -2.1 3.216c10.128 -10.6 25.838 -6.636 30.442 6.614 -11.638 -0.296 -35.644 -0.922 -37.07 -0.956a0.812 0.812 0 0 0 -0.642 1.304 9.378 9.378 0 0 0 -0.726 6.38c1.068 3.21 11.038 7.982 18.142 -5.6 0.186 0 0.362 0.01 0.55 0.01 0.154 2.444 0.952 8.666 4.896 9.982 4.722 1.57 11.96 -2.886 15.46 -9.042 0.1 0.4 0.19 0.826 0.27 1.25a27.884 27.884 0 0 0 3.03 -1.584l1.816 0.046a0.828 0.828 0 0 0 0.42 -1.512 13.254 13.254 0 0 0 4.496 -4.732 5.6 5.6 0 0 0 -1.614 -6.23z" fill="#000000" stroke-width="1"></path><path d="M314.172 133.674a3.358 3.358 0 0 0 2.912 3.738c3.284 0.4 4.6 -4.104 2.8 -4.018 -0.492 0.022 -0.828 0.352 -0.828 1.036 0.034 -0.312 -0.048 0.678 -0.632 1.056a1.686 1.686 0 0 1 -2.6 -1.812 0.824 0.824 0 0 0 -1.652 0z" fill="#000000" stroke-width="1"></path><path d="M290.73 252.272c-0.144 -0.216 -0.29 -0.446 -0.434 -0.672l27.034 75a62.73 62.73 0 0 0 15.74 2.526l-5.322 -60.126 12.228 60.076a71.588 71.588 0 0 0 13.552 -1.928l10.832 -73.638c-36.126 20.942 -73.63 -1.238 -73.63 -1.238z" fill="#7d4ab4" stroke-width="1"></path><path d="M296.104 210.368c-3.952 6.87 -4.548 15.544 0.848 21.692 0.8 0.876 0.064 1.12 9.6 1.658 -4.728 -5.704 -5.256 -15.492 -4.214 -22.708a97.492 97.492 0 0 1 -6.234 -0.642zm-63.078 -69.426a105.02 105.02 0 0 1 -6.472 -4.97l-15.904 16.454s1.6 2.454 4.536 6.068a56.28 56.28 0 0 0 17.84 -17.552z" fill="#59679c" stroke-width="1"></path><path d="M345.328 137.732 314.6 186.17a13659.4 13659.4 0 0 0 -13.254 -49.328 39.182 39.182 0 0 0 -11.918 6.4 118.274 118.274 0 0 0 7.02 6.4c0.528 0.446 0.144 1.16 -0.362 1.378l-7.966 3.38c1.724 7.774 19.96 27.672 25.4 33.466 0.2 -1.546 1.858 -1.306 1.658 -0.104 6.682 -3.814 30.08 -17.35 33.826 -24.094 -2.246 -1.894 -4.482 -3.79 -6.73 -5.696 -0.526 -0.444 -0.144 -1.158 0.364 -1.376a73.626 73.626 0 0 0 13.522 -7.03c0.848 -0.632 1.666 0.8 0.828 1.418a69.954 69.954 0 0 1 -12.59 6.648q3.09 2.6 6.17 5.228c0.876 0.708 -0.962 2.966 -1.708 3.81 -6.168 7 -25.826 18.6 -33.932 23.154a66.474 66.474 0 0 0 -0.352 19.372 52.116 52.116 0 0 0 43.51 -32.316c0.35 -0.834 0.89 -2.24 1.118 -3.014a0.822 0.822 0 0 1 1.584 0.436 51.372 51.372 0 0 1 -8.552 15.81c-10.814 14.07 -26.96 21.98 -48.282 21.02 -1.258 5.73 -0.59 17.63 4.97 22.77 21.484 0.764 44.436 -4.472 57.322 -21.496 0.63 -0.838 2.06 0 1.418 0.828 -18.6 24.618 -60.116 24.578 -70.586 21.216 -0.538 -0.176 -1.014 -0.87 -1.378 -1.284a18.256 18.256 0 0 1 -3.426 -17.944 23.822 23.822 0 0 1 2.662 -6.108 0.87 0.87 0 0 1 0.93 -0.384 75.886 75.886 0 0 0 17.056 0.622c-1.56 -17.52 1.096 -18.556 0.05 -19.6 -4.918 -5.186 -26.538 -28.64 -26.57 -35.836a0.882 0.882 0 0 1 0.6 -0.8l7.29 -3.074a103.446 103.446 0 0 1 -6.13 -5.674c-4.97 4.472 -6.546 8.776 -11.122 11.2 -11.04 5.844 -26.858 -3.588 -36.04 -9.282q-3.368 -2.096 -6.648 -4.37a60.364 60.364 0 0 1 -18.13 17.902c9.61 11.422 30.8 31.736 57.488 27.76 1.944 15.556 8.162 51.62 17 64.724 0 0 37.504 22.18 73.64 1.244 0.684 -0.4 1.376 -0.8 2.06 -1.244 0.022 -0.03 25.452 -90.724 -21.082 -114.57zm-24.518 62.8a1.938 1.938 0 0 1 -3.656 -1.23c0.748 -2.362 4.528 -1.074 3.656 1.228zm-37.938 -39.668a41.448 41.448 0 0 0 -2.6 8.512 0.826 0.826 0 1 1 -1.6 -0.436 44.426 44.426 0 0 1 2.766 -8.904 0.826 0.826 0 0 1 1.434 0.828zm38.062 96.834c-1.232 -3.22 -2.8 -6.296 -3.8 -9.6 -0.31 -1.016 1.284 -1.45 1.586 -0.436 1 3.304 2.566 6.38 3.8 9.6a0.822 0.822 0 0 1 -1.586 0.436zm7 -6.15c-0.84 2.142 -4.37 1.046 -3.656 -1.232 0.754 -2.376 4.548 -1.046 3.656 1.232z" fill="#59679c" stroke-width="1"></path><path d="M322.302 156.67a5.124 5.124 0 0 0 0.148 -6.082 16.53 16.53 0 0 1 -7.754 -0.922 5.148 5.148 0 0 0 -0.696 6.984l-4.348 10.872s3.686 13.844 4.94 18.648l10.426 -16.452z" fill="#7d4ab4" stroke-width="1"></path><path d="M327.974 332.902c-7.842 -2.4 -19.02 0.29 -28.122 3.81 -3.05 1.088 -2.73 3.07 -1.024 4.2a6.18 6.18 0 0 0 2.464 0.312c27.706 0.38 28.918 1.138 30.514 -0.354a3.494 3.494 0 0 0 0.332 -3.954 6.938 6.938 0 0 0 -4.164 -4.014zm42.226 5.736c-8.666 -4.494 -19.332 -8.6 -27.428 -7.27a7.084 7.084 0 0 0 -4.628 3.47 3.48 3.48 0 0 0 -0.166 3.966c1.386 1.662 2.216 1.042 30.244 4.13a6.136 6.136 0 0 0 2.474 0c1.822 -0.912 2.38 -2.798 -0.496 -4.296z" fill="#000000" stroke-width="1"></path><path d="M212.12 120.358c-0.35 2.03 0.508 4.318 -0.042 6.254a15.344 15.344 0 0 1 -2.898 -2.268c-4.254 -3.094 -5.876 -5.2 -7.486 -4.432 -1.026 0.498 -0.88 2.2 -0.778 3.138a10.988 10.988 0 0 0 2.704 6.2 44.2 44.2 0 0 0 -5.42 -4.264c-3.33 -2.2 -4.686 0.572 -3.054 3.614a34.4 34.4 0 0 0 4.886 6.8 7.648 7.648 0 0 0 -4.66 -2.112 9.98 9.98 0 0 0 -2.918 -0.238 1.214 1.214 0 0 0 -1.078 0.88c-0.218 1.316 1.336 2.672 2.134 3.51a55 55 0 0 0 5.968 5.16c3.736 2.932 7.476 5.4 12.466 4.412a10.6 10.6 0 0 0 8.512 -7.684 22.4 22.4 0 0 0 -4.98 -19.29c-1.16 -1.286 -2.992 -1.782 -3.356 0.32zm72.802 87.826c-3.2 -2.106 -8.906 -6.358 -13 -5.094 -4.266 1.314 3.894 6.14 3.894 6.14s-11.298 0.144 -12.136 1.738c-0.652 1.234 1.708 3.138 5.78 4.568 -2.756 -0.674 -6 -1.244 -6.484 -0.352 -0.58 1.108 1.43 3.332 4.442 5.176 -9.39 -3.776 0.174 5.614 11.214 6.668a10.922 10.922 0 0 0 10.302 -4.638c2.842 -4.626 0.366 -11.324 -4.012 -14.206z" fill="#ff9f48" stroke-width="1"></path><path d="M205.068 41.478c-0.232 -0.012 -15.58 -0.848 -15.822 -0.89 -0.758 -0.136 -0.328 0.54 -5.508 -15.646a0.718 0.718 0 0 0 -1.376 -0.04c-1.6 4.328 -1.948 9.174 -4.288 13.222 -3.726 6.44 -13.532 0.052 -18.172 2.878 3.538 4.628 12.53 8.042 12.53 10.178 0 0.674 0.298 -0.586 -5.032 15.926a0.724 0.724 0 0 0 1.024 0.828 68.144 68.144 0 0 0 9.66 -5.612c1.044 -0.734 4.034 -2.96 4.256 -3.21 1.946 1.362 10.614 8.484 12.4 8.832a0.722 0.722 0 0 0 0.91 -0.662c0.046 -3.89 -1.95 -7.326 -2.848 -11.1 -0.836 -3.5 -0.552 -4.412 1.916 -6.068A121.532 121.532 0 0 0 205.4 42.8a0.712 0.712 0 0 0 -0.332 -1.322zm127.454 241.206c-7.252 -9.83 -19.162 4.132 -10.274 10.1 -0.018 0.2 -7.66 87.9 -7.66 88.67 -0.094 1.056 1.552 1.044 1.646 0a168334.6 168334.6 0 0 0 7.61 -87.836 7.226 7.226 0 0 0 5 0.2c-3.512 88.304 -3.238 83.094 -3.272 83.258 -0.042 1.058 1.6 1.058 1.646 0 0 -0.2 3.282 -80.226 3.282 -84.056a7.428 7.428 0 0 0 2.022 -10.336zm-65.792 -54.63a5.512 5.512 0 0 0 -3.014 9.94c-0.138 1.644 -5.612 64.292 -5.612 64.984 -0.094 1.056 1.554 1.046 1.646 0 0.186 -2.164 5.508 -63.638 5.56 -64.166a5.566 5.566 0 0 0 3.232 0.114c-0.074 1.946 -2.384 65.668 -2.384 65.668 -0.04 1.054 1.6 1.054 1.648 0l2.424 -66.414a5.546 5.546 0 0 0 -3.5 -10.126zm16.286 32.212c-0.024 0.2 -6.264 71.946 -6.264 72.574 -0.094 1.056 1.552 1.044 1.646 0 0.228 -2.682 6.162 -71.3 6.2 -71.704a6.642 6.642 0 0 0 4.482 0.218l-2.444 71.278c-0.042 1.058 1.6 1.058 1.646 0 0 -0.2 2.464 -71.46 2.464 -72.066a6.8 6.8 0 0 0 1.834 -9.422c-6.456 -8.662 -17.318 2.926 -9.564 9.122zM38.152 292.24c8.65 -6.178 -2.26 -18.118 -9.49 -10.986a7.388 7.388 0 0 0 1.274 11.224c0 0.986 3.084 80.854 3.272 83.912 0 1.266 1.696 1.19 1.656 0.146 -0.114 -2.8 -3.086 -80.062 -3.272 -83.26a7.182 7.182 0 0 0 5 -0.2c0.228 2.62 7.238 84.12 7.59 87.712 0 1.22 1.752 1.222 1.658 0.146 -1.768 -20.098 -7.64 -88.278 -7.688 -88.694zm58.548 -54.804a5.478 5.478 0 0 0 2.2 -3.75 5.584 5.584 0 1 0 -8.688 3.926l2.4 66.41c0.042 1.058 1.688 1.058 1.646 0 -0.082 -2.2 -2.246 -63.2 -2.4 -65.656a5.494 5.494 0 0 0 3.242 -0.124c5.822 67.936 5.54 64.058 5.54 64.166 0.092 1.046 1.738 1.056 1.646 0 -0.012 -0.208 -5.268 -61.786 -5.586 -64.972zm-19.3 22.286a6.494 6.494 0 0 0 2.6 -4.426 6.69 6.69 0 1 0 -10.312 4.732c0 0.426 2.474 72.308 2.464 72.056 0.042 1.056 1.678 1.056 1.646 0 -0.082 -2.4 -2.298 -68.556 -2.444 -71.28a6.57 6.57 0 0 0 4.474 -0.218c0.018 0.2 6.2 71.504 6.2 71.704 0.092 1.048 1.74 1.058 1.646 0 -0.026 -0.182 -6.154 -71.2 -6.274 -72.568z" fill="#ffd35c" stroke-width="1"></path><path d="M269.98 336.142c-0.62 -0.848 -2.05 -0.02 -1.418 0.83 1.15 1.562 33.144 45.258 34.562 47.164 0.66 0.988 2.114 0.106 1.48 -0.746 -0.77 -1.058 -34.484 -47.026 -34.624 -47.248zm-5.208 -4.316c0.622 0.848 2.05 0.02 1.418 -0.83 -26.098 -35.64 -29 -39.534 -29.064 -39.646 -0.622 -0.85 -2.05 -0.02 -1.42 0.828 30.578 41.712 29.002 39.552 29.066 39.648zM226.688 292.6a0.824 0.824 0 0 0 0 -1.646H137.372a0.824 0.824 0 0 0 0 1.646zm-101.1 -1.416c-0.714 0.87 -79.5 97.32 -79.542 97.372 -0.662 0.818 0.498 1.988 1.16 1.16 0.714 -0.87 79.5 -97.32 79.542 -97.372 0.674 -0.808 -0.486 -1.978 -1.16 -1.16zm196.056 1.114c-6.8 0.29 -25.26 -1.63 -30.924 -29.662 -0.072 3.148 -0.11 1 -0.642 17.16a26.434 26.434 0 0 0 8.874 14.432 22.486 22.486 0 0 0 23.248 -0.828c0.022 -0.2 0.032 -0.416 0.052 -0.612a6.764 6.764 0 0 1 -0.608 -0.49zm-38.658 -31.658c0 -0.646 0.2 -0.13 -0.54 -0.86 -2.98 0.042 -9.762 -1.916 -12.248 -19.716 -0.048 1.906 0.024 -0.954 -0.456 10.986a23.98 23.98 0 0 0 3.636 10.106c0 0.022 4.494 5.002 9.608 -0.516zm-195.946 -0.012a23.954 23.954 0 0 0 3.634 -10.106c-0.072 -2.102 -0.352 -9.63 -0.4 -11.286 -2.454 18.068 -9.304 20.062 -12.296 20 -0.688 0.648 -0.58 0.302 -0.534 0.854 5.102 5.51 9.596 0.538 9.596 0.538zM57.468 295.44c7 -2.238 11.14 -9.312 12.86 -16.184 -0.136 -4 -0.54 -15.574 -0.6 -17.376 -5.612 28.228 -24.13 30.154 -30.954 29.874a5.52 5.52 0 0 1 -0.62 0.486c0.02 0.2 0.026 0.416 0.046 0.622a22.6 22.6 0 0 0 19.268 2.578zM99.4 333.338a0.842 0.842 0 0 0 0 1.158c0.01 0.022 0.114 0.146 0.124 0.166a8.222 8.222 0 0 1 1.512 3.624c0 1.212 1.766 0.964 1.636 0.022a9.6 9.6 0 0 0 -2.122 -4.97 0.81 0.81 0 0 0 -1.15 0zm4.962 -1.988a0.822 0.822 0 1 0 -1.584 0.434 19.154 19.154 0 0 0 2.2 5.27 0.848 0.848 0 0 0 1.128 0.3 0.84 0.84 0 0 0 0.3 -1.128 16.892 16.892 0 0 1 -2.044 -4.876zm123.456 -31.95c-1.444 0.068 -0.244 2.088 -2.352 4.908a0.83 0.83 0 0 0 0.302 1.128 0.84 0.84 0 0 0 1.128 -0.3 9.904 9.904 0 0 0 1.75 -4.93 0.826 0.826 0 0 0 -0.828 -0.806zm3.54 1.134a0.848 0.848 0 0 0 -1.014 0.57l-1.554 4.524a0.826 0.826 0 0 0 0.57 1.014 0.848 0.848 0 0 0 1.016 -0.568c0.516 -1.512 1.034 -3.014 1.552 -4.526a0.828 0.828 0 0 0 -0.57 -1.014zm-99.858 -0.114a0.834 0.834 0 0 0 -1.128 -0.3 0.86 0.86 0 0 0 -0.3 1.128l1.926 4.38a0.836 0.836 0 0 0 1.128 0.3 0.858 0.858 0 0 0 0.3 -1.128c-0.642 -1.47 -1.278 -2.922 -1.926 -4.38zm3.624 -1.004a0.84 0.84 0 0 0 -1.014 -0.57 0.828 0.828 0 0 0 -0.57 1.016c0.55 1.502 1.108 3 1.658 4.494a0.852 0.852 0 0 0 1.014 0.578 0.822 0.822 0 0 0 0.57 -1.014c-0.55 -1.52 -1.106 -3 -1.658 -4.504zm126.634 52.694c-0.56 2.048 -1.118 4.11 -1.676 6.16a0.822 0.822 0 0 0 1.584 0.436l1.676 -6.162a0.822 0.822 0 0 0 -1.584 -0.434zm4.888 2.204a0.84 0.84 0 0 0 -1.014 0.57c-0.508 1.698 -1.026 3.4 -1.532 5.084a0.832 0.832 0 0 0 0.58 1.016 0.844 0.844 0 0 0 1.014 -0.58c0.506 -1.698 1.024 -3.4 1.532 -5.084a0.844 0.844 0 0 0 -0.58 -1.006zm-185.478 6.016a0.848 0.848 0 0 0 -1.128 -0.3 0.84 0.84 0 0 0 -0.3 1.13c0.922 1.314 1.832 2.64 2.754 3.954a0.852 0.852 0 0 0 1.128 0.3 0.838 0.838 0 0 0 0.3 -1.128c-0.922 -1.314 -1.834 -2.636 -2.754 -3.956zm2.818 -1.698a0.826 0.826 0 0 0 -1.43 0.828c0.766 1.296 1.532 2.6 2.298 3.894a0.826 0.826 0 0 0 1.43 -0.828c-0.766 -1.294 -1.534 -2.588 -2.298 -3.894zm84.708 -28.382a0.822 0.822 0 0 0 -1.016 -0.568 0.834 0.834 0 0 0 -0.568 1.016c0.382 1.676 0.776 3.354 1.16 5.03a0.838 0.838 0 0 0 1.014 0.582 0.852 0.852 0 0 0 0.58 -1.016c-0.394 -1.694 -0.788 -3.362 -1.17 -5.044zm2.858 -1.118c-1.312 0.434 0.188 1.664 -0.818 4.03 -0.826 1.568 0.902 1.924 1.294 1.138a6.938 6.938 0 0 0 0.538 -4.586 0.838 0.838 0 0 0 -1.014 -0.582zm31.374 -16.814a0.888 0.888 0 0 0 -0.56 1.138 6.506 6.506 0 0 1 -0.476 3.19 0.826 0.826 0 0 0 1.43 0.828 7.768 7.768 0 0 0 0.6 -4.556 0.8 0.8 0 0 0 -0.994 -0.6zm5.474 -0.57a0.844 0.844 0 0 0 -1.016 0.57c-0.55 1.688 -1.086 3.376 -1.636 5.054a0.828 0.828 0 0 0 0.568 1.012 0.838 0.838 0 0 0 1.016 -0.578c0.55 -1.688 1.088 -3.376 1.636 -5.052a0.8 0.8 0 0 0 -0.568 -1.006z" fill="#f55555" stroke-width="1"></path></svg>