<svg xmlns="http://www.w3.org/2000/svg" viewBox="-1.165 -1.165 56 56" height="56" width="56" id="Time-Monthly-2--Streamline-Ultimate.svg"><desc>Time Monthly 2 Streamline Icon: https://streamlinehq.com</desc><defs></defs><title>time-monthly-2</title><path d="M36.898125 52.551875h-33.54375a2.23625 2.23625 0 0 1 -2.23625 -2.23625v-42.48875a2.23625 2.23625 0 0 1 2.23625 -2.23625h46.96125a2.23625 2.23625 0 0 1 2.23625 2.23625v26.835" fill="none" stroke="#85dcd6" stroke-linecap="round" stroke-linejoin="round" stroke-width="2.33"></path><path d="m12.299375000000001 1.118125 0 11.18125" fill="none" stroke="#85dcd6" stroke-linecap="round" stroke-linejoin="round" stroke-width="2.33"></path><path d="m41.370625000000004 1.118125 0 11.18125" fill="none" stroke="#85dcd6" stroke-linecap="round" stroke-linejoin="round" stroke-width="2.33"></path><path d="m1.118125 16.771875 51.43375 0" fill="none" stroke="#85dcd6" stroke-linecap="round" stroke-linejoin="round" stroke-width="2.33"></path><path d="M52.551875 34.661875v15.65375a2.23625 2.23625 0 0 1 -2.23625 2.23625h-13.4175" fill="none" stroke="#85dcd6" stroke-linecap="round" stroke-linejoin="round" stroke-width="2.33"></path><path d="M14.535625 24.598750000000003h6.70875a4.4725 4.4725 0 0 1 0 8.945h0a4.4725 4.4725 0 0 1 0 8.945h-6.70875" fill="none" stroke="#85dcd6" stroke-linecap="round" stroke-linejoin="round" stroke-width="2.33"></path><path d="m32.425625000000004 42.48875 10.063125 0" fill="none" stroke="#85dcd6" stroke-linecap="round" stroke-linejoin="round" stroke-width="2.33"></path><path d="M38.01625 42.48875v-16.771875a1.118125 1.118125 0 0 0 -1.815835 -0.8743737500000001l-3.77479 3.0189375000000003" fill="none" stroke="#85dcd6" stroke-linecap="round" stroke-linejoin="round" stroke-width="2.33"></path></svg>